<?xml version="1.0" encoding="UTF-8"?>
<svg xmlns="http://www.w3.org/2000/svg" xmlns:xlink="http://www.w3.org/1999/xlink" width="428.92pt" height="345.41pt" viewBox="0 0 428.92 345.41" version="1.1">
<defs>
<clipPath id="clip1">
  <path d="M 0 45 L 428.921875 45 L 428.921875 300 L 0 300 Z M 0 45 "/>
</clipPath>
<clipPath id="clip2">
  <path d="M 41 0 L 388 0 L 388 345.410156 L 41 345.410156 Z M 41 0 "/>
</clipPath>
</defs>
<g id="surface1">
<g clip-path="url(#clip1)" clip-rule="nonzero">
<path style=" stroke:none;fill-rule:nonzero;fill:rgb(100%,100%,100%);fill-opacity:1;" d="M 25.617188 172.230469 C 26.285156 173.089844 26.535156 173.457031 26.832031 173.789062 C 46.8125 196.066406 68.636719 216.304688 93.21875 233.449219 C 118.730469 251.242188 145.898438 265.519531 176.386719 272.894531 C 196.066406 277.65625 215.9375 278.898438 235.917969 276.09375 C 261.285156 272.53125 284.929688 263.667969 307.3125 251.3125 C 336.539062 235.175781 362.355469 214.597656 385.867188 191.027344 C 391.78125 185.097656 397.445312 178.921875 403.246094 172.835938 C 402.636719 172.054688 402.28125 171.539062 401.871094 171.078125 C 383.164062 150.199219 362.789062 131.132812 340.015625 114.730469 C 315.757812 97.257812 289.921875 82.859375 260.996094 74.464844 C 238.644531 67.980469 215.933594 65.859375 192.917969 69.082031 C 169.558594 72.355469 147.597656 80.183594 126.734375 91.144531 C 97.65625 106.421875 71.839844 126.136719 48.363281 148.980469 C 40.632812 156.503906 33.257812 164.398438 25.617188 172.230469 Z M 212.082031 45.296875 C 243.628906 45.523438 271.269531 52.476562 297.816406 64.382812 C 332.425781 79.902344 362.621094 101.863281 390.328125 127.46875 C 402.804688 138.996094 414.535156 151.238281 425.34375 164.359375 C 430.019531 170.042969 430.175781 174.984375 425.464844 180.707031 C 406.878906 203.28125 385.769531 223.253906 362.726562 241.210938 C 337.148438 261.144531 309.597656 277.609375 278.878906 288.425781 C 256.355469 296.355469 233.195312 300.613281 209.273438 299.820312 C 183.921875 298.980469 159.710938 292.992188 136.382812 283.113281 C 109.042969 271.535156 84.253906 255.8125 61.199219 237.238281 C 40.277344 220.386719 20.980469 201.859375 3.902344 181.085938 C -1.21875 174.863281 -1.339844 170.367188 3.769531 164.324219 C 38.179688 123.628906 78.132812 89.820312 126.429688 66.59375 C 149.445312 55.523438 173.621094 48.242188 199.175781 46.027344 C 204.242188 45.589844 209.332031 45.445312 212.082031 45.296875 "/>
</g>
<path style=" stroke:none;fill-rule:nonzero;fill:rgb(100%,100%,100%);fill-opacity:1;" d="M 261.316406 172.617188 C 261.34375 146.6875 240.671875 125.785156 214.917969 125.707031 C 188.515625 125.625 167.5 146.316406 167.449219 172.445312 C 167.398438 198.476562 188.484375 219.425781 214.761719 219.453125 C 240.433594 219.480469 261.285156 198.503906 261.316406 172.617188 Z M 214.734375 241.738281 C 176.269531 241.714844 145.285156 210.972656 145.339844 172.882812 C 145.390625 134.367188 176.328125 103.464844 214.867188 103.433594 C 252.449219 103.402344 283.664062 134.71875 283.675781 172.46875 C 283.683594 210.886719 252.957031 241.765625 214.734375 241.738281 "/>
<g clip-path="url(#clip2)" clip-rule="nonzero">
<path style=" stroke:none;fill-rule:nonzero;fill:rgb(100%,100%,100%);fill-opacity:1;" d="M 54.175781 345.410156 C 50.976562 345.410156 47.777344 344.1875 45.339844 341.75 C 40.457031 336.867188 40.457031 328.953125 45.339844 324.070312 L 365.75 3.660156 C 370.628906 -1.222656 378.546875 -1.222656 383.425781 3.660156 C 388.308594 8.542969 388.308594 16.457031 383.425781 21.339844 L 63.015625 341.75 C 60.574219 344.1875 57.375 345.410156 54.175781 345.410156 "/>
</g>
</g>
</svg>
