<?xml version="1.0" encoding="UTF-8"?>
<svg xmlns="http://www.w3.org/2000/svg" xmlns:xlink="http://www.w3.org/1999/xlink" width="428.92pt" height="254.62pt" viewBox="0 0 428.92 254.62" version="1.1">
<g id="surface1">
<path style=" stroke:none;fill-rule:nonzero;fill:rgb(100%,100%,100%);fill-opacity:1;" d="M 25.617188 126.9375 C 26.285156 127.796875 26.535156 128.164062 26.832031 128.492188 C 46.8125 150.773438 68.636719 171.011719 93.21875 188.15625 C 118.730469 205.949219 145.898438 220.226562 176.386719 227.601562 C 196.066406 232.363281 215.9375 233.605469 235.917969 230.800781 C 261.285156 227.234375 284.929688 218.375 307.3125 206.019531 C 336.539062 189.882812 362.355469 169.304688 385.867188 145.734375 C 391.78125 139.804688 397.445312 133.625 403.246094 127.542969 C 402.636719 126.757812 402.28125 126.246094 401.871094 125.785156 C 383.164062 104.90625 362.789062 85.839844 340.015625 69.4375 C 315.757812 51.964844 289.921875 37.566406 260.996094 29.171875 C 238.644531 22.6875 215.933594 20.566406 192.917969 23.789062 C 169.558594 27.058594 147.597656 34.890625 126.734375 45.851562 C 97.65625 61.128906 71.839844 80.84375 48.363281 103.6875 C 40.632812 111.210938 33.257812 119.101562 25.617188 126.9375 Z M 212.082031 0.00390625 C 243.628906 0.226562 271.269531 7.183594 297.816406 19.089844 C 332.425781 34.609375 362.621094 56.566406 390.328125 82.175781 C 402.804688 93.703125 414.535156 105.945312 425.34375 119.066406 C 430.019531 124.75 430.175781 129.691406 425.464844 135.414062 C 406.878906 157.988281 385.769531 177.960938 362.726562 195.917969 C 337.148438 215.851562 309.597656 232.316406 278.878906 243.132812 C 256.355469 251.0625 233.195312 255.316406 209.273438 254.527344 C 183.921875 253.6875 159.710938 247.699219 136.382812 237.820312 C 109.042969 226.242188 84.253906 210.519531 61.199219 191.945312 C 40.277344 175.09375 20.980469 156.566406 3.902344 135.792969 C -1.21875 129.570312 -1.339844 125.074219 3.769531 119.03125 C 38.179688 78.335938 78.132812 44.527344 126.429688 21.300781 C 149.445312 10.230469 173.621094 2.949219 199.175781 0.734375 C 204.242188 0.296875 209.332031 0.152344 212.082031 0.00390625 "/>
<path style=" stroke:none;fill-rule:nonzero;fill:rgb(100%,100%,100%);fill-opacity:1;" d="M 261.316406 127.324219 C 261.34375 101.394531 240.671875 80.492188 214.917969 80.414062 C 188.515625 80.332031 167.5 101.023438 167.449219 127.152344 C 167.398438 153.183594 188.484375 174.132812 214.761719 174.160156 C 240.433594 174.1875 261.285156 153.210938 261.316406 127.324219 Z M 214.734375 196.445312 C 176.269531 196.421875 145.285156 165.679688 145.339844 127.589844 C 145.390625 89.074219 176.328125 58.171875 214.867188 58.140625 C 252.449219 58.109375 283.664062 89.425781 283.675781 127.175781 C 283.683594 165.59375 252.957031 196.472656 214.734375 196.445312 "/>
</g>
</svg>
